<?xml version="1.0" standalone="no"?>
<!DOCTYPE svg PUBLIC "-//W3C//DTD SVG 20010904//EN"
 "http://www.w3.org/TR/2001/REC-SVG-20010904/DTD/svg10.dtd">
<svg version="1.0" xmlns="http://www.w3.org/2000/svg"
 width="300.000000pt" height="300.000000pt" viewBox="0 0 300.000000 300.000000"
 preserveAspectRatio="xMidYMid meet">
<metadata>
Created by potrace 1.11, written by Peter Selinger 2001-2013
</metadata>
<g transform="translate(0.000000,300.000000) scale(0.100000,-0.100000)"
fill="#000000" stroke="none">
<path d="M203 2832 c-18 -2 -33 -9 -33 -15 -4 -94 0 -2640 4 -2644 7 -7 2646
-7 2653 1 4 4 7 2232 3 2611 l0 50 -1297 0 c-714 0 -1313 -1 -1330 -3z m1042
-1008 c0 -456 -2 -507 -24 -581 -13 -44 -97 -205 -121 -231 -11 -12 -20 -26
-20 -32 0 -5 -5 -10 -11 -10 -5 0 -7 -4 -4 -10 3 -5 2 -10 -4 -10 -5 0 -33
-22 -63 -49 -61 -56 -160 -121 -183 -121 -9 0 -13 -4 -10 -10 3 -5 0 -10 -8
-10 -8 0 -49 -11 -92 -25 -65 -22 -146 -32 -202 -26 -10 1 -13 54 -13 231 0
231 1 237 34 231 4 -1 14 3 20 9 7 5 15 7 18 4 9 -8 88 18 82 27 -3 5 1 9 8 9
7 1 22 8 33 18 25 21 80 92 71 92 -4 0 -2 9 4 20 10 19 16 44 26 115 2 17 5
211 5 432 l1 402 27 3 c14 2 116 3 226 2 l200 -1 0 -479z m1265 -404 l-5 -675
-215 -1 c-118 0 -221 1 -227 4 -10 3 -13 52 -13 199 0 185 -1 194 -17 177 -21
-20 -62 -72 -83 -105 -13 -20 -73 -102 -182 -249 -35 -48 -49 -61 -60 -57 -5
2 -219 286 -293 390 l-30 42 -3 -202 -2 -203 -220 0 c-218 0 -220 0 -208 20 7
11 20 23 29 25 17 6 137 121 177 170 31 37 112 195 112 217 0 9 4 18 9 20 6 2
12 14 15 28 2 14 9 49 15 79 6 29 11 160 11 290 l0 236 76 -80 c250 -267 307
-325 319 -325 7 0 26 14 42 32 15 17 37 41 48 53 11 12 59 66 106 121 48 54
102 115 120 135 19 19 52 57 74 83 106 128 177 206 186 206 5 0 9 6 9 14 0 8
4 16 8 18 4 2 34 32 67 68 32 36 74 83 94 105 l36 40 5 -100 c3 -55 3 -404 0
-775z"/>
</g>
</svg>
